<svg xmlns="http://www.w3.org/2000/svg" viewBox="0 0 512 512">
  <defs>
    <linearGradient id="bg" x1="0%" y1="0%" x2="100%" y2="100%">
      <stop offset="0%" style="stop-color:#6366f1"/>
      <stop offset="100%" style="stop-color:#8b5cf6"/>
    </linearGradient>
  </defs>
  <rect width="512" height="512" rx="100" fill="url(#bg)"/>
  <!-- Piano keys -->
  <rect x="100" y="180" width="60" height="200" rx="8" fill="#ffffff" stroke="#333" stroke-width="2"/>
  <rect x="170" y="180" width="60" height="200" rx="8" fill="#ffffff" stroke="#333" stroke-width="2"/>
  <rect x="240" y="180" width="60" height="200" rx="8" fill="#ffffff" stroke="#333" stroke-width="2"/>
  <rect x="310" y="180" width="60" height="200" rx="8" fill="#ffffff" stroke="#333" stroke-width="2"/>
  <rect x="380" y="180" width="32" height="200" rx="8" fill="#ffffff" stroke="#333" stroke-width="2"/>
  <!-- Black keys -->
  <rect x="145" y="180" width="36" height="130" rx="6" fill="#1e293b"/>
  <rect x="215" y="180" width="36" height="130" rx="6" fill="#1e293b"/>
  <rect x="355" y="180" width="36" height="130" rx="6" fill="#1e293b"/>
  <!-- Musical note accent -->
  <circle cx="380" cy="130" r="25" fill="#f59e0b"/>
  <path d="M380 105 L380 155 M380 155 Q395 160 395 145" stroke="#1e293b" stroke-width="4" fill="none"/>
</svg>
